<svg width="1329.6mm" height="174.63mm" version="1.1" viewBox="0 0 1329.6 174.63" 
    xmlns="http://www.w3.org/2000/svg">
    <g transform="translate(599.45 -48.395)">
        <g stroke-width=".26458" aria-label="Wolfsbane">
            <path d="m-327.64 60.313-51.336 160.43h-57.982l-25.897-85.713-27.272 85.713h-57.982l-51.336-160.43h55.69l27.96 91.213 29.564-91.213h49.732l27.96 92.359 29.564-92.359z"/>
            <path d="m-260.4 223.03q-20.855 0-37.585-8.2504-16.501-8.4796-25.897-23.147-9.3963-14.897-9.3963-33.689t9.3963-33.46q9.3963-14.897 25.897-23.147 16.73-8.2504 37.585-8.2504 21.084 0 37.585 8.2504 16.73 8.2504 25.897 23.147 9.3963 14.667 9.3963 33.46t-9.3963 33.689q-9.1672 14.667-25.897 23.147-16.501 8.2504-37.585 8.2504zm0-40.336q8.938 0 14.667-6.417 5.7295-6.6462 5.7295-18.334t-5.7295-18.105q-5.7295-6.417-14.667-6.417t-14.667 6.417q-5.7295 6.417-5.7295 18.105t5.7295 18.334q5.7295 6.417 14.667 6.417z"/>
            <path d="m-171.31 50.687h51.794v170.05h-51.794z"/>
            <path d="m-40.64 102.25h27.272v37.815h-25.668v80.671h-51.794v-80.671h-17.188v-37.815h17.188v-0.68753q0-24.522 14.667-38.731 14.667-14.438 41.252-14.438 8.7088 0 16.959 1.6043 8.2504 1.6043 13.751 4.5836l-12.376 35.981q-6.417-2.9793-11.688-2.9793-5.7295 0-9.1672 3.6669-3.2085 3.4377-3.2085 10.771z"/>
            <path d="m50.065 223.03q-16.043 0-31.627-3.4377-15.584-3.4377-25.21-8.938l14.209-34.148q8.7088 5.2711 20.626 8.2504 11.917 2.9793 23.147 2.9793 8.938 0 12.376-1.3751 3.6669-1.6042 3.6669-4.5836t-4.5836-4.1252q-4.3544-1.1459-14.438-2.2918-15.355-1.8334-26.126-4.5836-10.771-2.9793-19.022-11.23-8.0213-8.2504-8.0213-23.605 0-12.146 7.3337-21.772t21.772-15.355q14.667-5.7295 35.064-5.7295 14.209 0 27.731 2.7501 13.751 2.521 23.376 7.5629l-14.209 34.148q-16.501-9.1672-36.21-9.1672-16.959 0-16.959 5.9586 0 2.9793 4.5836 4.3544 4.5836 1.1459 14.438 2.2918 15.355 1.8334 25.897 4.8128 10.771 2.9793 18.793 11.23 8.2504 8.2504 8.2504 23.605 0 11.688-7.3337 21.314t-22.001 15.355q-14.667 5.7295-35.523 5.7295z"/>
            <path d="m214.03 93.085q16.501 0 30.252 8.0213 13.98 7.7921 22.001 22.689 8.2504 14.667 8.2504 34.148 0 19.48-8.2504 34.377-8.0213 14.897-22.001 22.918-13.751 7.7921-30.252 7.7921-23.147 0-34.377-12.605v10.313h-49.273v-170.05h51.794v53.17q11.001-10.771 31.856-10.771zm-12.376 89.609q8.938 0 14.667-6.417 5.7295-6.6462 5.7295-18.334t-5.7295-18.105q-5.7295-6.417-14.667-6.417-8.938 0-14.667 6.417-5.7295 6.417-5.7295 18.105t5.7295 18.334q5.7295 6.417 14.667 6.417z"/>
            <path d="m343.64 93.085q33.002 0 50.419 14.897 17.418 14.667 17.418 45.377v67.379h-48.128v-16.501q-8.938 18.793-35.523 18.793-14.897 0-25.439-5.0419-10.313-5.2711-15.813-13.98-5.2711-8.938-5.2711-19.939 0-18.564 14.209-28.189 14.209-9.6255 43.086-9.6255h20.855q-2.521-14.667-23.605-14.667-8.4796 0-17.188 2.7501-8.7088 2.521-14.897 7.1046l-16.501-34.148q10.771-6.6462 25.897-10.313 15.355-3.896 30.481-3.896zm-0.22918 98.776q5.5003 0 9.8547-2.9793 4.3544-2.9793 6.417-8.938v-8.7088h-12.834q-15.813 0-15.813 10.542 0 4.3544 3.2085 7.3337 3.4377 2.7501 9.1672 2.7501z"/>
            <path d="m520.95 93.085q23.147 0 37.127 13.98 14.209 13.98 14.209 42.169v71.504h-51.794v-62.566q0-21.543-15.355-21.543-8.7088 0-14.209 6.1878-5.2711 5.9586-5.2711 19.022v58.899h-51.794v-125.36h49.273v12.376q7.3337-7.3337 16.959-11.001 9.6255-3.6669 20.855-3.6669z"/>
            <path d="m730.18 157.94q0 1.1459-0.68754 12.146h-87.088q2.7502 7.1046 9.1672 11.001 6.417 3.6669 16.043 3.6669 8.2504 0 13.751-2.0626 5.7295-2.0626 12.376-7.1046l27.043 27.272q-18.334 20.168-54.774 20.168-22.689 0-39.877-8.2504-17.188-8.4796-26.585-23.376-9.3963-14.897-9.3963-33.46 0-18.793 9.1672-33.46 9.3963-14.897 25.439-23.147 16.272-8.2504 36.439-8.2504 19.022 0 34.606 7.5629 15.813 7.5629 24.981 22.23 9.3963 14.667 9.3963 35.064zm-68.525-29.564q-8.0213 0-13.292 4.3544t-6.8754 12.376h40.336q-1.6043-7.7921-6.8754-12.146-5.2711-4.5836-13.292-4.5836z"/>
        </g>
    </g>
</svg>
